<?xml version="1.0" standalone="no"?>
<!DOCTYPE svg PUBLIC "-//W3C//DTD SVG 20010904//EN"
 "http://www.w3.org/TR/2001/REC-SVG-20010904/DTD/svg10.dtd">
<svg version="1.0" xmlns="http://www.w3.org/2000/svg"
 width="79.000000pt" height="271.000000pt" viewBox="0 0 79.000000 271.000000"
 preserveAspectRatio="xMidYMid meet">

<g transform="translate(0.000000,271.000000) scale(0.100000,-0.100000)"
fill="#000000" stroke="none">
<path d="M407 2621 c-35 -86 -47 -157 -41 -235 5 -58 4 -76 -6 -76 -9 0 -11
-12 -6 -47 l6 -47 -42 39 c-23 22 -49 49 -57 60 -9 11 -35 41 -58 66 -60 65
-54 73 10 14 29 -28 17 -14 -27 30 -46 46 -81 74 -84 67 -5 -16 46 -95 57 -88
4 3 21 -8 36 -24 33 -35 23 -40 -13 -7 -14 12 -22 16 -17 9 6 -11 -3 -12 -48
-7 -32 4 -57 3 -61 -3 -12 -20 147 -112 196 -112 28 0 80 -19 54 -20 -12 0 12
-27 43 -50 l27 -18 -1 77 c0 69 3 82 28 117 15 22 27 44 27 50 -1 5 -7 -2 -16
-16 -14 -24 -14 -23 -9 25 l5 50 -14 -50 -13 -50 -7 35 c-13 61 40 250 65 234
11 -7 7 -132 -6 -194 l-6 -25 12 25 c17 40 24 177 9 195 -19 23 -26 19 -43
-24z m-256 -168 c13 -16 12 -17 -3 -4 -10 7 -18 15 -18 17 0 8 8 3 21 -13z
m-38 -90 c-7 -2 25 -23 70 -46 61 -31 76 -43 59 -45 -23 -4 -98 33 -147 72
l-29 24 29 -1 c17 0 25 -2 18 -4z m82 -22 c22 -10 47 -26 55 -36 10 -12 -5 -8
-50 15 -36 18 -67 34 -69 36 -12 11 29 1 64 -15z m145 -123 c0 -6 -6 -5 -15 2
-8 7 -15 14 -15 16 0 2 7 1 15 -2 8 -4 15 -11 15 -16z"/>
<path d="M191 2634 c0 -11 3 -14 6 -6 3 7 2 16 -1 19 -3 4 -6 -2 -5 -13z"/>
<path d="M235 2630 c10 -11 20 -20 23 -20 3 0 -3 9 -13 20 -10 11 -20 20 -23
20 -3 0 3 -9 13 -20z"/>
<path d="M426 2598 c-3 -13 -5 -32 -5 -43 1 -11 5 -2 10 19 10 42 6 62 -5 24z"/>
<path d="M201 2603 c-2 -35 54 -145 88 -174 20 -18 39 -39 43 -48 4 -9 7 3 7
28 1 42 0 44 -14 25 -15 -18 -16 -18 -44 15 -17 18 -41 63 -55 100 -14 36 -25
60 -25 54z"/>
<path d="M287 2555 c15 -24 29 -42 31 -40 4 4 -46 85 -53 85 -2 0 8 -20 22
-45z"/>
<path d="M412 2505 c0 -16 2 -22 5 -12 2 9 2 23 0 30 -3 6 -5 -1 -5 -18z"/>
<path d="M321 2484 c0 -11 3 -14 6 -6 3 7 2 16 -1 19 -3 4 -6 -2 -5 -13z"/>
<path d="M291 2485 c0 -5 6 -21 14 -35 8 -14 14 -20 14 -15 0 6 -6 21 -14 35
-8 14 -14 21 -14 15z"/>
<path d="M485 2429 c-6 -8 -4 -10 5 -4 9 6 11 -1 6 -26 -6 -34 -6 -34 5 -6 12
31 -2 60 -16 36z"/>
<path d="M441 2334 c-12 -31 -24 -78 -26 -103 -5 -42 -4 -40 9 14 8 33 21 78
30 99 9 22 14 41 12 43 -2 3 -14 -21 -25 -53z"/>
<path d="M506 2348 c-3 -18 -8 -54 -11 -80 -3 -25 -13 -52 -20 -58 -18 -15
-20 -34 -3 -24 7 5 9 2 4 -7 -4 -8 4 0 18 16 30 34 36 19 7 -16 -15 -19 -21
-21 -33 -11 -8 6 -19 8 -23 4 -5 -4 -6 0 -2 9 20 57 47 154 46 168 0 9 -11
-22 -25 -69 -14 -47 -29 -89 -35 -94 -5 -6 -9 -25 -9 -42 0 -18 -4 -36 -10
-39 -5 -3 -10 -1 -10 6 0 7 -2 10 -5 7 -3 -2 0 -20 7 -39 l12 -34 9 35 c4 19
9 43 11 52 1 10 6 21 11 25 4 5 5 2 1 -4 -4 -8 -2 -13 6 -13 24 0 58 30 78 70
21 40 27 66 10 40 -9 -13 -10 -13 -10 0 -1 9 -6 6 -16 -10 -11 -17 -13 -19 -9
-5 8 23 16 145 10 145 -2 0 -6 -15 -9 -32z m-13 -143 c-3 -9 -8 -14 -10 -11
-3 3 -2 9 2 15 9 16 15 13 8 -4z"/>
<path d="M541 2329 c-16 -27 -20 -44 -13 -51 7 -7 14 2 22 26 6 20 16 34 21
31 5 -4 9 3 9 14 0 32 -14 25 -39 -20z"/>
<path d="M342 2340 c0 -14 2 -19 5 -12 2 6 2 18 0 25 -3 6 -5 1 -5 -13z"/>
<path d="M276 2317 c3 -10 9 -15 12 -12 3 3 0 11 -7 18 -10 9 -11 8 -5 -6z"/>
<path d="M133 2203 c-7 -17 19 -42 77 -76 47 -28 35 -12 -15 20 -47 30 -65 53
-39 53 26 0 121 -51 149 -80 22 -23 24 -28 10 -34 -9 -3 -14 -2 -11 3 3 5 -2
15 -12 22 -16 13 -16 13 -2 -5 14 -18 13 -19 -2 -13 -10 3 -18 4 -18 2 0 -3
30 -18 66 -35 36 -16 79 -44 95 -61 l30 -33 -17 37 c-9 20 -21 34 -26 31 -5
-3 -41 26 -81 64 -75 73 -92 84 -158 107 -36 13 -40 13 -46 -2z"/>
<path d="M200 2166 c0 -3 9 -10 20 -16 11 -6 20 -8 20 -6 0 3 -9 10 -20 16
-11 6 -20 8 -20 6z"/>
<path d="M595 1625 c-63 -42 -109 -90 -101 -104 4 -5 26 9 51 35 46 45 72 57
61 27 -6 -15 -5 -15 13 1 20 18 58 15 46 -4 -3 -5 0 -7 9 -4 14 5 12 34 -2 32
-4 0 -9 1 -12 2 -18 7 -48 5 -43 -3 3 -6 1 -7 -6 -3 -15 10 -3 29 15 22 8 -3
13 0 11 6 -1 7 7 13 18 15 16 3 17 2 5 -6 -22 -15 -5 -24 20 -11 12 7 33 10
46 7 20 -3 22 -2 13 9 -21 26 -90 16 -144 -21z"/>
<path d="M39 1601 c-21 -18 -22 -19 -4 -15 11 3 41 -2 67 -9 30 -10 50 -11 56
-5 6 6 12 6 16 -1 7 -11 -8 -14 -49 -12 -16 1 -15 -1 5 -10 15 -7 20 -13 12
-16 -6 -3 -10 -9 -6 -14 3 -5 -11 -9 -31 -9 -39 0 -40 19 -2 21 15 0 17 2 7 6
-8 3 -18 11 -22 17 -5 8 -8 7 -8 -1 0 -17 -18 -16 -36 2 -20 19 -34 19 -34 -1
0 -9 5 -12 12 -8 7 4 8 3 4 -5 -4 -6 2 -38 13 -71 12 -33 21 -70 21 -83 0 -30
11 -44 43 -56 31 -12 34 -23 12 -41 -9 -7 -15 -29 -15 -54 0 -58 49 -122 103
-137 22 -6 42 -8 45 -5 3 3 0 6 -6 6 -6 0 -10 6 -8 13 1 6 1 9 -1 5 -13 -23
-83 13 -83 41 0 7 -4 10 -9 7 -16 -10 -23 28 -7 39 8 6 18 24 21 41 13 58 24
70 64 69 41 0 46 -19 8 -29 -12 -3 -31 -12 -42 -21 -18 -14 -16 -14 13 0 52
25 51 9 -4 -41 -27 -25 -32 -32 -10 -14 21 17 40 29 42 27 3 -3 -3 -21 -12
-41 -14 -29 -15 -39 -5 -49 10 -9 11 -9 6 5 -7 18 15 67 39 87 13 11 19 11 31
1 12 -10 15 -9 15 5 0 9 14 30 31 46 25 23 35 27 45 18 17 -14 18 -38 3 -59
-8 -12 -9 -11 -4 6 3 12 2 29 -1 39 -5 13 -13 6 -37 -35 -16 -28 -27 -53 -25
-56 3 -2 17 17 31 44 29 51 36 45 12 -11 -8 -20 -12 -44 -8 -53 4 -12 3 -15
-5 -10 -7 4 -10 2 -7 -6 4 -9 -2 -14 -15 -15 -17 -2 -20 3 -16 20 3 14 1 12
-6 -5 -12 -28 -32 -36 -43 -18 -4 6 -11 7 -17 4 -7 -5 -2 -11 11 -16 17 -6 22
-14 18 -28 -3 -13 0 -20 9 -20 7 0 11 6 8 14 -3 8 5 21 17 30 30 21 37 12 13
-16 -18 -22 -18 -22 0 -8 10 8 34 47 53 87 19 40 36 73 37 73 2 0 1 -26 -2
-57 -4 -53 -3 -57 12 -44 9 7 16 27 16 44 l0 31 29 -46 c30 -47 69 -80 111
-93 24 -7 24 -7 8 12 -10 11 -18 27 -18 36 0 19 17 32 22 16 2 -7 13 -9 26 -5
12 4 20 12 17 17 -4 5 3 9 14 9 12 0 21 7 21 15 0 18 16 20 26 4 3 -6 -10 -27
-29 -47 -32 -32 -38 -34 -54 -21 -16 12 -17 12 -6 -2 7 -9 10 -19 6 -22 -3 -4
-1 -7 6 -7 6 0 29 17 50 38 34 32 40 45 44 92 5 49 4 51 -5 23 -6 -18 -17 -33
-25 -33 -10 0 -11 5 -4 19 8 14 7 22 -4 31 -11 9 -12 16 -5 25 8 9 6 14 -4 18
-8 3 -16 -2 -19 -13 -3 -11 1 -21 9 -24 8 -3 14 -13 14 -22 0 -8 -3 -14 -7
-12 -5 3 -23 11 -40 18 -18 8 -33 19 -33 25 0 6 -19 23 -42 38 l-42 27 64 0
c61 -1 64 -2 45 -16 -19 -15 -18 -16 15 -11 38 5 74 -8 65 -24 -4 -5 -1 -9 4
-9 17 0 13 18 -9 40 -11 11 -27 17 -37 14 -15 -5 -16 -4 -3 5 8 6 22 11 31 11
19 0 49 31 48 51 0 8 -4 4 -9 -8 -5 -13 -14 -23 -20 -23 -6 0 -8 4 -5 10 4 7
-3 7 -20 0 -14 -5 -70 -14 -125 -19 -55 -5 -104 -12 -110 -16 -5 -3 -10 -1
-10 4 0 6 6 11 13 11 6 0 32 14 57 30 25 16 59 30 75 31 23 0 26 2 12 8 -17 6
-17 8 -3 20 19 16 21 42 5 58 -9 9 -3 14 22 21 22 7 27 11 13 11 -11 1 -36
-11 -55 -25 -46 -34 -70 -47 -67 -35 2 5 -1 8 -7 7 -5 0 -10 -6 -10 -13 0 -6
-4 -15 -9 -20 -5 -4 -6 -3 -2 5 4 6 5 12 2 12 -3 0 -17 -21 -30 -47 -29 -56
-33 -37 -10 49 8 33 13 62 10 65 -2 3 -10 -15 -16 -38 -6 -24 -15 -53 -19 -64
-8 -18 -10 -17 -25 15 l-17 35 7 -35 c3 -19 13 -41 22 -47 14 -12 14 -13 -4
-13 -11 0 -31 18 -48 41 -52 74 -194 169 -252 169 -12 0 -32 -9 -45 -19z m76
-1 c13 -5 14 -9 5 -9 -8 0 -24 4 -35 9 -13 5 -14 9 -5 9 8 0 24 -4 35 -9z
m167 -110 l63 -60 -52 34 c-29 19 -68 39 -88 46 -40 13 -48 40 -10 40 16 0 45
-20 87 -60z m-228 16 c-5 -14 -9 -15 -15 -5 -5 8 -3 17 4 21 15 9 19 4 11 -16z
m126 4 c8 -5 12 -11 9 -14 -3 -3 -14 1 -25 9 -21 16 -8 20 16 5z m400 -5 c0
-13 -124 -114 -141 -115 -3 0 -6 7 -6 15 0 8 5 11 10 8 6 -4 8 0 5 9 -4 8 -2
21 4 29 8 11 8 10 4 -5 -4 -12 12 -2 43 27 51 48 81 59 81 32z m-462 -22 c-2
-9 -9 -18 -17 -21 -8 -3 -11 0 -7 7 4 6 1 11 -8 11 -9 0 -16 5 -16 10 0 6 12
10 26 10 18 0 25 -5 22 -17z m69 -10 c2 -5 -9 -8 -27 -5 -29 4 -37 12 -24 25
8 8 47 -7 51 -20z m95 -19 c30 -20 60 -44 66 -55 11 -17 10 -18 -13 -9 -40 15
-135 79 -135 90 0 19 27 10 82 -26z m-202 -11 c0 -20 -3 -24 -11 -16 -7 7 -9
19 -6 27 10 24 17 19 17 -11z m125 3 c30 -12 29 -13 -34 -19 -63 -7 -81 -4
-81 13 0 20 73 24 115 6z m95 -51 l45 -24 -75 -2 c-41 -1 -88 -5 -105 -9 l-30
-7 25 -6 c14 -4 41 -8 60 -11 19 -2 2 -2 -39 0 -42 1 -77 8 -81 14 -4 7 -11
11 -16 10 -5 -1 -10 4 -12 10 -3 9 1 9 16 1 28 -15 37 -14 23 2 -6 8 -7 17 -3
22 4 4 -4 4 -17 0 -17 -5 -21 -4 -16 5 4 6 17 9 29 7 11 -3 39 -2 61 3 65 13
88 10 135 -15z m377 -11 c-3 -3 -12 -4 -19 -1 -8 3 -5 6 6 6 11 1 17 -2 13 -5z
m-40 -10 c-3 -3 -12 -4 -19 -1 -8 3 -5 6 6 6 11 1 17 -2 13 -5z m-227 -23 c0
-11 -4 -23 -10 -26 -6 -4 -10 5 -10 19 0 14 5 26 10 26 6 0 10 -9 10 -19z
m-122 2 c-16 -2 -40 -2 -55 0 -16 2 -3 4 27 4 30 0 43 -2 28 -4z m219 -19 c26
-5 65 -43 57 -55 -3 -5 -28 3 -57 17 -38 18 -47 20 -32 7 43 -39 85 -95 85
-113 0 -36 -24 -21 -63 39 -21 33 -45 66 -54 73 -17 14 82 -137 104 -161 8 -7
11 -16 8 -19 -18 -19 -135 159 -135 206 0 19 20 20 87 6z m-158 -11 c-17 -20
-89 -73 -100 -73 -4 0 -3 14 3 31 11 31 53 58 92 59 16 0 17 -2 5 -17z m-187
-25 c-7 -7 -12 -22 -12 -34 0 -12 -9 -32 -20 -45 l-20 -24 2 43 c2 33 8 48 27
63 25 20 44 18 23 -3z m472 -47 c16 -14 22 -51 8 -51 -4 0 -13 5 -20 12 -9 9
-12 7 -12 -9 0 -34 -17 -36 -36 -6 -10 15 -26 37 -36 49 -18 21 -18 21 30 20
27 -1 57 -7 66 -15z m-217 -63 c-3 -7 -5 -2 -5 12 0 14 2 19 5 13 2 -7 2 -19
0 -25z"/>
<path d="M746 1605 c4 -10 0 -15 -11 -15 -10 0 -29 -12 -42 -26 -24 -26 -25
-55 -1 -53 10 0 10 2 1 6 -21 8 -15 26 7 20 11 -3 20 -1 20 4 0 5 -4 9 -10 9
-5 0 -7 7 -4 15 4 8 13 15 21 15 11 0 13 -6 8 -22 -3 -13 -8 -45 -10 -73 l-4
-50 9 48 c5 27 13 62 19 79 14 38 14 58 1 58 -5 0 -7 -7 -4 -15z"/>
<path d="M352 1535 c0 -16 2 -22 5 -12 2 9 2 23 0 30 -3 6 -5 -1 -5 -18z"/>
<path d="M626 1501 c-3 -5 12 -11 34 -13 43 -4 54 6 18 16 -32 8 -46 7 -52 -3z"/>
<path d="M673 1457 c-22 -12 -22 -13 -4 -24 16 -10 20 -9 24 13 2 13 4 24 3
24 0 -1 -11 -6 -23 -13z"/>
<path d="M260 1221 c-13 -25 3 -36 21 -14 12 14 12 16 0 8 -11 -6 -13 -4 -8 8
9 23 0 21 -13 -2z"/>
<path d="M135 771 c-3 -5 13 -30 35 -56 42 -49 49 -65 26 -65 -17 0 -33 19
-37 44 -5 23 -29 34 -29 13 0 -8 7 -20 15 -27 22 -18 18 -32 -7 -28 -13 2 -29
15 -36 31 -14 28 -26 34 -37 17 -3 -5 5 -19 19 -31 29 -25 26 -39 -8 -39 -13
0 -29 -7 -36 -15 -17 -20 5 -20 40 0 43 24 56 18 27 -13 -27 -29 -35 -52 -17
-52 5 0 16 15 24 34 14 33 51 64 63 52 3 -3 0 -12 -6 -20 -7 -8 -9 -21 -5 -27
5 -8 3 -9 -6 -4 -8 5 -11 3 -9 -4 3 -7 8 -12 13 -11 5 1 13 -4 17 -12 6 -10
15 -5 38 20 34 37 42 39 64 14 38 -42 60 -116 66 -220 3 -56 3 -102 -1 -102
-5 0 -8 -11 -8 -24 0 -13 -3 -32 -6 -41 -6 -13 -9 -14 -16 -3 -7 9 -8 8 -4 -5
3 -10 6 -31 7 -45 1 -26 1 -25 10 6 9 30 12 32 57 33 38 1 42 2 22 9 l-25 8
25 1 c17 1 21 4 13 12 -8 8 -19 6 -41 -5 -41 -21 -43 -20 -31 10 5 15 11 88
12 163 2 75 0 123 -3 106 l-6 -30 -8 30 c-4 17 -21 52 -39 79 l-31 49 28 24
c16 13 25 27 21 31 -3 4 -14 -4 -24 -17 l-18 -23 0 31 c0 20 3 27 9 19 6 -10
8 -9 8 4 0 9 -4 19 -9 22 -11 7 -21 -18 -21 -55 0 -21 -4 -27 -15 -23 -18 7
-20 47 -3 74 13 21 6 36 -11 25 -6 -3 -11 -20 -11 -36 0 -18 -4 -28 -10 -24
-13 8 -13 52 -1 60 11 6 10 45 -1 45 -7 0 -13 -20 -20 -65 -3 -16 -7 -13 -20
15 -9 19 -19 34 -22 33 -15 -7 -19 -2 -6 7 9 6 10 10 3 10 -6 0 -14 -4 -18 -9z
m112 -147 c2 -6 -10 -17 -27 -24 -20 -8 -27 -16 -20 -20 8 -5 9 -10 2 -14 -16
-10 -25 30 -12 54 12 22 50 25 57 4z"/>
<path d="M357 763 c-13 -12 -7 -93 8 -130 10 -22 13 -50 9 -72 -3 -23 -2 -31
4 -23 5 7 33 24 61 38 66 30 111 62 111 77 0 8 -3 8 -8 2 -21 -30 -94 -72 -77
-45 3 6 -1 7 -9 4 -35 -14 -13 8 27 26 23 11 35 20 26 20 -9 0 -40 -16 -68
-35 -58 -40 -66 -37 -20 6 20 19 25 27 13 23 -14 -5 -11 1 10 24 17 18 26 32
22 32 -5 0 -3 7 5 16 7 9 22 14 36 11 12 -2 20 0 17 4 -18 29 -72 -6 -107 -69
l-24 -42 3 57 3 58 -9 -48 c-5 -27 -11 -51 -14 -54 -9 -9 -18 46 -14 87 2 22
3 40 2 40 0 0 -4 -3 -7 -7z m103 -57 c0 -2 -8 -10 -17 -17 -16 -13 -17 -12 -4
4 13 16 21 21 21 13z m-25 -123 c-15 -8 -29 -12 -32 -10 -2 3 5 8 16 12 12 3
19 11 16 16 -3 5 2 6 11 2 14 -5 12 -8 -11 -20z"/>
<path d="M489 693 l-24 -28 28 24 c15 14 27 26 27 28 0 8 -8 1 -31 -24z"/>
<path d="M624 669 c-3 -6 -1 -16 5 -22 8 -8 11 -5 11 11 0 24 -5 28 -16 11z"/>
<path d="M590 656 c0 -8 5 -18 10 -21 6 -3 10 -21 9 -38 l-1 -32 -12 34 c-7
20 -15 30 -19 24 -4 -6 -1 -23 7 -38 14 -26 11 -65 -4 -65 -5 0 -13 14 -19 30
-5 17 -15 30 -20 30 -16 0 -14 -9 9 -37 21 -27 26 -53 10 -53 -5 0 -13 8 -19
17 -5 10 -13 15 -17 10 -4 -4 1 -16 11 -27 21 -24 22 -23 -37 -54 -39 -21 -47
-22 -52 -10 -4 10 -2 13 7 8 9 -5 9 -4 0 7 -17 18 -16 34 1 20 11 -9 15 -8 20
5 9 24 7 31 -4 14 -8 -13 -11 -13 -19 -1 -10 15 -14 6 -26 -59 -4 -19 -18 -54
-32 -78 -14 -24 -23 -45 -21 -48 3 -2 11 7 18 21 9 17 19 24 29 19 9 -3 30 -7
46 -9 23 -2 24 -1 5 3 -23 5 -22 6 15 18 l40 14 -53 -3 c-28 -1 -52 1 -52 4 0
16 41 41 60 36 11 -3 18 -1 14 4 -3 5 7 4 22 -1 19 -7 31 -7 38 0 6 6 -1 12
-23 16 -23 5 -29 9 -19 15 21 14 72 10 96 -7 18 -12 26 -13 37 -4 8 7 15 19
15 26 0 8 5 14 10 14 6 0 10 4 10 9 0 5 -15 7 -32 4 -27 -4 -31 -2 -20 8 16
17 15 29 -2 29 -7 0 -16 -9 -19 -20 -3 -11 -13 -20 -23 -20 -15 0 -14 4 7 26
20 21 29 24 59 19 34 -6 34 -6 15 10 -19 16 -18 16 23 11 25 -4 42 -2 42 4 0
5 -9 10 -21 10 -12 0 -17 4 -13 11 8 14 -32 2 -61 -17 -11 -8 -24 -14 -30 -14
-5 0 -2 5 7 11 9 5 15 16 12 23 -3 8 6 23 20 34 14 11 26 26 26 32 0 9 -5 9
-17 -3 -15 -13 -20 -13 -30 -1 -7 7 -13 20 -13 29 0 8 -4 15 -10 15 -5 0 -10
-6 -10 -14z m40 -211 c7 -9 10 -18 6 -22 -3 -3 -6 -1 -6 5 0 7 -9 12 -20 12
-11 0 -20 5 -20 10 0 15 26 12 40 -5z"/>
<path d="M640 575 c-16 -19 0 -19 26 0 16 12 16 14 3 15 -9 0 -22 -7 -29 -15z"/>
<path d="M715 580 c-3 -5 1 -10 9 -10 9 0 16 5 16 10 0 6 -4 10 -9 10 -6 0
-13 -4 -16 -10z"/>
<path d="M246 478 c-9 -12 -16 -36 -16 -53 -1 -27 -2 -28 -12 -10 -16 30 -60
75 -72 75 -6 0 -3 -5 7 -11 9 -6 15 -14 12 -18 -2 -5 4 -16 15 -26 11 -10 20
-23 20 -28 0 -15 -40 23 -61 58 -23 36 -25 26 -4 -15 8 -16 35 -43 60 -60 52
-36 62 -62 11 -31 -34 22 -90 27 -115 12 -17 -11 -6 -31 17 -30 15 1 15 2 -1
6 -31 8 -7 23 36 22 36 -1 38 -2 17 -9 -25 -8 -25 -8 5 -10 l30 -3 -35 -7
c-30 -5 -26 -7 31 -11 57 -3 65 -2 62 12 -3 9 2 30 11 47 9 17 16 39 15 49 0
10 -5 2 -11 -17 -10 -34 -11 -34 -21 -12 -12 27 2 78 21 75 7 -2 12 2 12 7 0
17 -18 11 -34 -12z"/>
<path d="M251 434 c0 -11 3 -14 6 -6 3 7 2 16 -1 19 -3 4 -6 -2 -5 -13z"/>
<path d="M304 429 c-5 -8 -3 -9 6 -4 10 6 12 1 7 -26 -3 -19 -8 -43 -11 -54
-4 -11 0 -6 8 10 17 35 20 71 7 80 -5 3 -13 0 -17 -6z"/>
<path d="M280 381 c0 -6 4 -13 10 -16 6 -3 7 1 4 9 -7 18 -14 21 -14 7z"/>
<path d="M582 375 c-11 -13 -10 -15 7 -15 14 0 19 5 15 15 -7 18 -6 18 -22 0z"/>
<path d="M269 335 c-1 -16 -1 -34 0 -38 1 -4 -22 -5 -51 -3 l-53 6 40 -14 c22
-8 48 -15 57 -15 10 -1 24 -13 32 -28 8 -16 15 -23 15 -18 0 6 -6 21 -13 35
-9 15 -11 31 -6 40 5 9 3 25 -6 40 l-13 25 -2 -30z"/>
<path d="M530 346 c0 -2 7 -7 16 -10 8 -3 12 -2 9 4 -6 10 -25 14 -25 6z"/>
<path d="M523 313 c9 -2 23 -2 30 0 6 3 -1 5 -18 5 -16 0 -22 -2 -12 -5z"/>
<path d="M137 283 c-17 -16 -3 -23 46 -21 l52 2 -50 3 c-35 3 -45 7 -35 13 8
6 10 10 4 10 -6 0 -14 -3 -17 -7z"/>
<path d="M453 233 c16 -3 25 -9 21 -15 -4 -7 -2 -8 5 -4 18 12 2 26 -27 25
l-27 -2 28 -4z"/>
<path d="M312 85 c0 -16 2 -22 5 -12 2 9 2 23 0 30 -3 6 -5 -1 -5 -18z"/>
</g>
</svg>
