<?xml version="1.0" standalone="no"?>
<!DOCTYPE svg PUBLIC "-//W3C//DTD SVG 20010904//EN"
 "http://www.w3.org/TR/2001/REC-SVG-20010904/DTD/svg10.dtd">
<svg version="1.0" xmlns="http://www.w3.org/2000/svg"
 width="734.000000pt" height="981.000000pt" viewBox="0 0 734.000000 981.000000"
 preserveAspectRatio="xMidYMid meet">

<g transform="translate(0.000000,981.000000) scale(0.100000,-0.100000)"
fill="#000000" stroke="none">
<path d="M970 9252 c0 -53 21 -130 74 -275 51 -137 56 -147 137 -218 40 -35
80 -72 89 -82 20 -21 21 -25 56 -232 14 -82 28 -160 30 -172 4 -14 -21 4 -75
57 -70 68 -81 84 -81 113 0 48 -74 149 -202 273 -107 105 -212 194 -228 194
-15 0 -12 -37 6 -73 9 -18 40 -63 68 -102 29 -38 62 -84 74 -101 l22 -32 -83
19 c-143 33 -169 34 -192 9 -20 -22 -20 -23 -1 -34 10 -6 37 -25 60 -42 87
-64 200 -137 244 -156 28 -13 77 -22 129 -26 l84 -5 38 -49 c43 -54 129 -128
148 -128 7 0 17 -19 24 -42 23 -89 72 -234 90 -270 11 -21 19 -39 19 -42 0 -3
-26 12 -57 33 -53 35 -89 70 -238 231 -51 54 -151 110 -283 156 -87 31 -120
-12 -60 -79 52 -57 396 -257 444 -257 23 0 164 -83 191 -112 12 -13 48 -63 81
-113 56 -84 131 -177 132 -164 0 3 -27 41 -60 85 -70 90 -170 282 -170 323 0
37 18 87 47 134 17 27 30 37 49 37 87 0 151 92 233 334 49 144 55 186 26 186
-18 0 -42 -36 -99 -145 l-47 -90 7 65 c19 180 -1 316 -44 308 -24 -4 -93 -150
-142 -299 -54 -165 -56 -185 -34 -268 15 -60 16 -78 6 -121 -7 -28 -12 -66
-13 -83 l-1 -32 -15 35 c-30 68 -83 295 -83 354 0 32 9 98 21 147 18 76 25 91
54 113 70 54 123 235 132 451 4 111 3 123 -19 165 -13 25 -30 45 -38 45 -27 0
-77 -102 -113 -232 -50 -180 -60 -255 -46 -323 6 -30 15 -73 19 -95 6 -28 3
-64 -10 -120 -10 -44 -19 -77 -19 -73 -1 4 -12 61 -25 125 -13 65 -27 165 -30
223 -5 94 -10 113 -42 180 -74 151 -222 340 -266 340 -15 0 -18 -9 -18 -48z
m67 -4 c56 -59 166 -222 203 -300 32 -69 55 -208 32 -194 -7 4 -12 13 -12 19
0 13 -183 379 -206 412 -29 41 -11 0 85 -197 86 -176 131 -274 131 -283 0 -1
-33 29 -74 67 -80 75 -83 81 -166 307 -41 113 -61 211 -43 211 5 0 27 -19 50
-42z m504 -20 c21 -50 16 -232 -9 -361 -24 -118 -53 -196 -83 -223 -23 -21
-23 -18 -5 55 8 31 24 119 36 196 11 77 29 175 39 218 10 42 17 77 14 77 -14
0 -43 -98 -52 -175 -12 -97 -42 -259 -64 -340 -11 -40 -15 -46 -21 -30 -15 38
-19 174 -7 237 29 152 107 378 130 378 5 0 15 -15 22 -32z m-672 -468 c25 -30
74 -84 109 -120 116 -120 113 -116 47 -77 -49 28 -72 51 -123 123 -87 125
-112 163 -119 182 -3 9 5 1 17 -18 12 -19 43 -60 69 -90z m178 -117 c91 -102
103 -117 124 -160 34 -70 16 -72 -32 -4 -24 35 -96 121 -159 191 -119 132
-140 156 -155 180 -15 25 166 -144 222 -207z m627 76 c16 -84 -5 -351 -33
-415 -18 -41 -99 -139 -108 -130 -2 2 6 30 17 62 66 182 91 284 114 452 2 12
0 22 -5 22 -4 0 -11 -21 -14 -47 -11 -87 -27 -146 -82 -317 -46 -142 -57 -166
-66 -150 -32 56 12 250 101 449 52 117 65 129 76 74z m-816 -122 c128 -32 178
-57 239 -119 l48 -49 -49 21 c-27 11 -95 45 -150 75 -95 50 -189 86 -225 85
-9 -1 22 -16 69 -33 47 -18 96 -40 110 -49 14 -9 79 -44 145 -78 l120 -61 -72
5 c-88 6 -133 25 -253 107 -51 35 -108 74 -127 87 -68 46 -19 49 145 9z m944
-124 c-64 -190 -107 -272 -168 -318 -55 -42 -57 -25 -3 35 59 65 66 77 118
206 61 152 72 177 77 171 3 -3 -8 -45 -24 -94z m-78 -89 c-45 -111 -143 -253
-152 -224 -3 8 9 25 26 39 18 16 57 80 98 163 37 76 69 136 71 135 1 -2 -18
-53 -43 -113z m-434 -89 c66 -67 73 -84 16 -40 -36 27 -102 105 -89 105 5 0
38 -29 73 -65z m-322 -81 c152 -62 197 -92 268 -171 37 -41 65 -76 63 -78 -3
-2 -23 11 -46 28 -23 18 -66 51 -95 73 -65 50 -250 150 -203 110 17 -14 57
-40 90 -58 33 -17 86 -52 119 -77 32 -25 72 -57 90 -69 28 -22 29 -23 6 -17
-53 16 -298 160 -360 212 -35 29 -54 59 -45 73 9 15 19 13 113 -26z m577 -85
c-3 -8 -15 -20 -26 -27 -17 -11 -20 -11 -14 0 23 39 52 59 40 27z"/>
<path d="M1970 6998 c-117 -61 -230 -154 -316 -261 -66 -81 -148 -220 -170
-289 -11 -31 -20 -46 -26 -40 -6 6 -6 17 0 29 6 10 10 39 11 63 0 25 11 83 25
129 15 47 26 94 26 106 0 11 5 26 10 31 15 15 1 46 -19 42 -12 -3 -15 -13 -13
-43 3 -47 -57 -245 -74 -245 -7 0 -15 12 -19 27 -3 15 -16 48 -28 73 -16 32
-22 65 -22 115 -1 58 -4 70 -18 73 -9 2 -17 -2 -17 -10 1 -51 24 -158 45 -207
16 -39 24 -74 22 -105 -1 -25 -3 -46 -4 -46 -1 0 -25 33 -54 73 -138 191 -378
367 -549 403 -83 17 -130 9 -172 -31 -54 -50 -50 -137 13 -269 37 -77 43 -98
46 -169 5 -108 21 -139 85 -166 28 -12 61 -21 74 -21 32 0 30 -8 -10 -45 -46
-42 -68 -116 -56 -190 11 -67 18 -80 80 -151 27 -31 52 -65 55 -75 4 -12 19
-20 43 -24 20 -4 61 -15 90 -26 71 -25 126 -24 187 4 64 30 96 76 145 209 43
117 69 170 72 148 1 -8 2 -58 3 -110 0 -89 1 -95 21 -98 37 -5 49 24 48 114 0
46 1 83 2 81 1 -1 18 -33 38 -72 76 -147 214 -260 314 -256 62 2 97 23 180
109 l74 75 3 63 c1 34 6 67 10 73 10 18 7 113 -5 146 -14 37 -55 81 -95 103
l-30 16 49 7 c52 8 100 44 118 89 5 14 13 72 18 130 6 76 16 130 39 194 34 99
38 131 17 179 -19 48 -59 69 -135 74 -60 4 -72 2 -131 -29z m52 -22 c-85 -34
-159 -79 -247 -148 l-50 -40 45 42 c114 106 238 180 300 180 31 0 25 -5 -48
-34z m125 18 c-3 -3 -12 -4 -19 -1 -8 3 -5 6 6 6 11 1 17 -2 13 -5z m68 -44
c9 -16 14 -30 13 -30 -2 0 -33 -2 -69 -4 -36 -2 -74 -8 -85 -14 -11 -5 -36 -7
-59 -3 l-40 7 55 29 c66 34 95 43 137 44 26 1 35 -5 48 -29z m-179 7 c-90 -58
-111 -74 -127 -101 -11 -17 -15 -34 -10 -39 10 -10 93 -4 158 11 31 7 47 6 59
-2 14 -11 14 -13 0 -25 -8 -7 -35 -19 -58 -26 -25 -8 -34 -14 -21 -14 16 -1
20 -6 16 -21 -7 -27 14 -50 45 -50 33 0 62 27 62 57 0 18 -5 23 -27 23 -25 1
-26 2 -10 14 9 7 17 23 17 35 0 14 6 21 19 21 11 0 26 3 35 6 22 9 20 -12 -9
-100 -18 -53 -26 -102 -29 -168 -3 -101 -20 -149 -59 -170 -30 -16 -151 -37
-212 -37 -43 1 -38 3 36 14 105 17 152 35 174 68 13 20 14 30 5 46 -9 18 -8
21 12 22 22 1 20 2 -21 15 -9 3 -6 10 13 25 26 21 34 53 16 64 -15 10 -12 23
8 28 9 3 1 5 -18 4 -51 -1 -83 12 -75 30 8 21 -23 53 -51 53 -17 0 -22 4 -18
15 9 21 -14 45 -43 45 -31 0 -99 -35 -106 -54 -4 -9 -27 -25 -53 -37 -26 -13
-74 -47 -108 -78 -33 -31 -54 -47 -45 -36 8 11 41 54 72 96 81 111 179 193
297 251 56 27 90 37 56 15z m-1266 -58 c50 -11 190 -77 190 -89 0 -21 -48 -17
-98 7 -29 14 -51 27 -49 29 3 4 67 -18 85 -29 6 -5 12 -4 12 1 0 17 -124 64
-182 69 -32 3 -55 10 -52 14 7 12 38 11 94 -2z m1460 -11 c0 -26 -17 -33 -86
-36 -70 -4 -71 -3 -69 20 1 12 3 24 4 26 0 1 35 2 76 2 53 0 75 -4 75 -12z
m-195 -12 l30 -13 -35 -21 c-35 -22 -120 -31 -120 -14 0 11 71 62 85 62 5 -1
24 -7 40 -14z m-1318 -2 c-3 -3 -12 -4 -19 -1 -8 3 -5 6 6 6 11 1 17 -2 13 -5z
m33 -31 c73 -25 150 -61 150 -71 0 -5 -33 2 -72 16 -61 20 -87 23 -155 20 -46
-2 -83 -1 -83 3 0 4 5 20 10 34 10 26 13 27 58 20 26 -4 67 -14 92 -22z m35
17 c13 -5 14 -9 5 -9 -8 0 -24 4 -35 9 -13 5 -14 9 -5 9 8 0 24 -4 35 -9z
m-57 -87 c3 -21 0 -23 -50 -23 -35 0 -48 3 -39 9 8 5 11 16 8 26 -6 14 0 16
36 13 35 -2 43 -7 45 -25z m-122 -8 c1 -14 -2 -25 -7 -25 -5 0 -9 11 -9 25 0
33 15 33 16 0z m219 6 c40 -12 61 -25 64 -36 2 -14 -1 -16 -15 -11 -11 4 -41
12 -68 17 -45 8 -65 21 -66 42 0 11 20 8 85 -12z m1125 -9 c0 -8 -8 -21 -17
-28 -16 -12 -13 -13 25 -12 46 1 68 -12 59 -35 -3 -9 -20 -15 -44 -15 -21 0
-49 -5 -63 -11 -20 -8 -9 -10 53 -10 91 -1 147 -20 147 -50 0 -31 -65 -60
-110 -49 -42 9 -164 8 -203 -3 -23 -6 -19 0 28 43 46 42 55 55 55 84 0 30 -4
35 -30 41 -39 7 -34 22 18 49 44 23 82 22 82 -4z m-902 -9 c53 -37 262 -239
262 -255 0 -6 -15 2 -32 19 -63 58 -163 120 -248 152 -108 40 -116 45 -112 67
10 52 67 59 130 17z m649 -15 c-57 -73 -127 -175 -127 -188 0 -11 -60 -110
-66 -110 -22 0 109 217 176 293 52 59 63 62 17 5z m453 7 c0 -20 -43 -47 -64
-39 -35 14 -13 48 34 52 21 2 30 -2 30 -13z m-1532 -32 c-2 -10 4 -19 15 -21
12 -2 17 3 17 17 0 12 6 21 15 21 17 0 17 -40 0 -52 -13 -10 -55 -10 -55 0 0
4 -3 17 -6 30 -4 13 -2 22 5 22 7 0 11 -8 9 -17z m192 7 c56 -11 67 -16 57
-26 -8 -8 -169 -5 -177 2 -7 8 31 34 51 34 9 0 40 -5 69 -10z m128 -35 c40
-17 51 -29 35 -38 -15 -9 -93 32 -93 48 0 9 3 15 8 13 4 -3 26 -13 50 -23z
m922 -4 c0 -24 -34 -58 -140 -141 -99 -78 -200 -143 -208 -135 -9 8 66 112
130 180 74 80 144 124 188 117 19 -3 30 -10 30 -21z m-1046 -21 c5 0 3 -7 -4
-15 -7 -8 -10 -25 -6 -38 5 -20 1 -25 -29 -34 -39 -12 -45 -5 -15 22 11 10 20
23 20 28 0 6 -6 3 -13 -7 -17 -23 -49 -17 -62 12 -5 12 -14 22 -20 22 -5 0 -3
5 5 10 8 6 38 8 65 6 28 -3 54 -5 59 -6z m-161 -20 c-3 -11 -9 -17 -14 -14
-14 8 -10 34 5 34 9 0 12 -7 9 -20z m316 -39 l16 -24 -40 6 c-22 4 -57 7 -78
7 -47 0 -61 25 -28 51 21 17 24 17 68 1 25 -9 53 -28 62 -41z m-283 1 c-10
-10 -29 15 -21 28 6 9 10 8 17 -4 6 -10 7 -20 4 -24z m414 8 c47 -25 166 -110
192 -137 14 -16 33 -40 43 -55 l17 -28 -38 16 c-147 60 -324 175 -324 209 0
26 56 24 110 -5z m-418 -42 c2 -13 10 -23 18 -23 21 0 30 -58 10 -66 -11 -4
-18 5 -26 35 -6 23 -14 49 -19 59 -4 10 -3 17 3 17 6 0 12 -10 14 -22z m44 11
c8 -14 -18 -31 -30 -19 -9 9 0 30 14 30 5 0 12 -5 16 -11z m220 -20 c40 -7 73
-20 91 -35 l28 -24 -48 0 c-27 0 -90 -5 -142 -11 -68 -8 -98 -8 -114 0 -30 16
-27 46 7 59 60 24 94 26 178 11z m1094 -41 c25 -13 46 -31 48 -40 7 -40 -96
-72 -268 -82 -266 -17 -313 -23 -305 -36 3 -4 -1 -10 -9 -13 -8 -3 -18 5 -25
19 -7 16 -7 23 -1 19 21 -13 73 8 159 66 49 33 94 65 99 72 7 8 52 13 134 15
112 3 127 1 168 -20z m-867 -72 c45 -24 99 -49 120 -56 20 -6 37 -15 37 -18 0
-4 -55 -7 -122 -7 -68 0 -177 -4 -243 -9 -101 -7 -126 -6 -157 7 -37 16 -45
30 -30 53 14 21 48 32 132 44 47 7 103 16 125 20 22 4 44 8 48 9 5 1 46 -19
90 -43z m277 25 c0 -24 -25 -34 -40 -16 -15 18 -5 35 21 35 12 0 19 -7 19 -19z
m-677 -10 c18 -6 18 -7 0 -23 -10 -8 -31 -18 -46 -22 -33 -8 -31 -28 4 -36 23
-6 41 -40 20 -40 -6 0 -11 5 -11 11 0 5 -5 7 -11 3 -7 -4 -6 -12 6 -23 15 -15
17 -15 29 1 10 13 19 15 51 7 22 -5 58 -12 80 -16 36 -6 32 -7 -43 -15 -119
-12 -162 15 -162 102 0 23 4 28 16 23 10 -4 17 1 21 16 6 22 15 25 46 12z
m632 -90 c-6 -5 -44 41 -44 54 0 6 11 -3 24 -20 13 -16 22 -31 20 -34z m-665
35 c0 -3 -4 -8 -10 -11 -5 -3 -10 -1 -10 4 0 6 5 11 10 11 6 0 10 -2 10 -4z
m719 -62 c8 -31 -4 -94 -18 -94 -14 0 -20 39 -14 92 6 52 18 52 32 2z m148 20
c-3 -3 -12 -4 -19 -1 -8 3 -5 6 6 6 11 1 17 -2 13 -5z m131 -1 c-10 -2 -28 -2
-40 0 -13 2 -5 4 17 4 22 1 32 -1 23 -4z m-478 -24 c-19 -6 -98 -12 -175 -14
l-140 -4 80 13 c96 16 291 20 235 5z m680 3 c0 -18 -39 -44 -87 -58 -48 -14
-48 -14 -8 -10 22 3 54 7 70 11 35 8 72 -16 77 -50 2 -16 -2 -19 -22 -17 -14
2 -55 6 -92 9 -38 2 -68 9 -68 13 0 20 -59 62 -110 78 l-55 17 75 5 c151 10
220 11 220 2z m60 -7 c38 -20 38 -25 0 -20 -16 2 -30 0 -30 -4 0 -5 18 -11 41
-14 38 -5 89 -39 89 -59 0 -12 -84 3 -89 15 -2 6 -14 20 -27 32 -13 12 -24 32
-24 44 0 25 2 25 40 6z m-602 -30 c-3 -29 -10 -31 -29 -9 -10 13 -10 17 2 25
23 14 29 11 27 -16z m-168 -1 c-128 -31 -311 -43 -385 -24 -24 6 -19 8 30 9
119 3 291 14 330 21 66 13 84 9 25 -6z m365 3 c94 -4 147 -27 194 -84 70 -85
12 -101 -100 -27 -109 71 -202 114 -185 85 4 -5 35 -25 70 -45 41 -23 83 -58
117 -98 30 -35 59 -67 65 -73 27 -24 44 -62 44 -96 0 -109 -39 -88 -137 76
-72 119 -199 272 -152 183 6 -12 40 -61 74 -108 34 -47 68 -96 75 -110 7 -14
28 -44 46 -68 34 -44 35 -72 5 -72 -31 0 -67 52 -151 216 -74 143 -82 165 -76
197 4 22 11 34 19 31 7 -2 48 -6 92 -7z m-249 -19 c4 -6 -2 -18 -13 -27 -12
-9 -49 -38 -84 -66 -70 -56 -140 -105 -151 -105 -13 0 -9 32 10 81 30 79 40
88 122 108 92 23 107 24 116 9z m-238 -72 c-13 -20 -28 -36 -35 -36 -27 0
-110 -34 -140 -57 l-33 -24 0 25 c0 42 17 72 52 90 23 12 26 16 10 13 -15 -4
-22 -1 -19 6 5 15 47 22 47 8 0 -15 33 -14 49 2 11 10 13 10 7 0 -11 -19 42
-17 61 2 25 26 26 9 1 -29z m261 22 c-6 -13 -35 -63 -65 -113 -51 -87 -118
-248 -107 -259 3 -3 -7 -11 -22 -18 -25 -11 -29 -10 -46 11 -11 13 -20 37 -20
55 -2 27 -2 28 -6 6 -9 -50 -53 -76 -81 -48 -20 20 -14 56 17 98 15 21 34 53
41 69 7 18 28 38 51 51 54 28 56 26 15 -22 -38 -44 -45 -78 -21 -98 21 -18 70
35 84 91 19 72 33 94 96 148 66 56 82 63 64 29z m26 -15 c-4 -21 -15 -58 -25
-83 -10 -25 -35 -89 -56 -143 -35 -95 -63 -137 -91 -137 -7 0 -13 5 -13 11 0
27 62 161 104 222 25 37 53 90 63 117 21 59 28 64 18 13z m-465 19 c0 -20 -35
-53 -85 -80 -44 -24 -55 -27 -55 -14 0 25 87 102 115 102 14 0 25 -3 25 -8z
m486 -111 c-22 -25 -57 -100 -87 -185 -38 -105 -68 -148 -121 -173 -23 -12
-44 -20 -45 -19 -2 2 5 21 15 44 13 32 22 42 40 42 13 0 36 13 50 28 26 28
123 261 138 332 l8 35 8 -44 c5 -33 4 -49 -6 -60z m62 -144 c-5 -102 -20 -61
-22 60 -2 65 -8 130 -14 144 -6 15 -8 30 -4 34 11 11 42 -175 40 -238z m601
232 c29 -10 31 -14 31 -56 0 -25 -5 -63 -12 -84 -12 -40 -22 -43 -68 -18 -13
6 -13 9 3 14 9 4 17 18 17 31 0 19 5 24 28 25 l27 1 -31 9 c-39 11 -77 51 -68
72 7 20 29 21 73 6z m-108 -24 c30 -16 69 -61 69 -80 0 -7 -6 -17 -13 -23 -10
-8 -20 -4 -41 19 -18 19 -49 35 -87 46 -52 14 -59 19 -59 41 0 24 2 24 52 18
28 -4 64 -14 79 -21z m-478 -25 c3 -11 1 -20 -4 -20 -5 0 -9 9 -9 20 0 11 2
20 4 20 2 0 6 -9 9 -20z m-613 -25 c0 -15 -6 -25 -14 -25 -18 0 -76 -48 -76
-62 0 -6 16 4 35 21 81 71 71 23 -22 -108 -8 -12 -15 13 -19 71 -5 53 -2 66
13 79 14 13 56 38 81 48 1 1 2 -10 2 -24z m192 -15 c-3 -24 -13 -34 -46 -49
-22 -10 -58 -36 -79 -57 -37 -38 -39 -38 -53 -20 -36 50 -3 90 110 132 77 29
73 29 68 -6z m730 -10 c15 0 31 7 36 16 14 24 72 10 124 -29 45 -35 54 -53 44
-93 -5 -18 -13 -24 -34 -24 -22 0 -31 8 -45 40 -10 22 -33 50 -50 62 l-32 21
32 -34 c45 -47 58 -90 41 -126 -25 -53 -76 -35 -99 36 -14 44 -40 84 -88 133
l-35 38 39 -20 c22 -11 52 -20 67 -20z m-732 -53 c0 -7 -18 -39 -40 -72 -22
-33 -40 -72 -40 -86 0 -33 -19 -90 -35 -107 -10 -11 -15 -11 -28 3 -15 15 -15
20 -2 52 8 19 15 37 15 39 0 2 7 4 15 4 12 0 11 4 -5 20 -26 26 -25 62 1 86
16 14 94 63 117 73 1 1 2 -5 2 -12z m111 -35 c-21 -41 -51 -63 -51 -37 0 16
60 88 67 81 2 -2 -5 -22 -16 -44z m883 -2 c36 -13 37 -71 2 -90 -14 -7 -39
-30 -56 -52 -43 -54 -107 -98 -141 -98 -20 0 -35 10 -53 33 -26 34 -34 67 -17
67 5 0 12 12 15 26 l7 27 20 -21 c10 -12 19 -26 19 -31 0 -13 50 -71 62 -71 5
0 -4 17 -21 37 l-31 37 36 14 c33 14 37 13 62 -9 l27 -24 -27 31 c-16 16 -28
39 -28 51 0 18 4 20 38 13 20 -3 48 -12 62 -19 l25 -12 -26 22 c-24 19 -25 24
-16 50 6 16 12 29 14 29 1 0 13 -4 27 -10z m-1178 -69 c-9 -10 -21 -31 -25
-47 l-7 -28 -23 32 -22 32 22 40 23 41 25 -25 c24 -24 24 -26 7 -45z m39 -23
c8 -26 7 -41 -5 -66 -15 -32 -17 -32 -33 -14 -9 10 -17 27 -17 36 0 18 30 76
40 76 3 0 10 -15 15 -32z m858 -93 c28 -50 21 -55 -29 -24 -33 20 -34 21 -16
44 9 14 18 25 19 25 1 0 13 -20 26 -45z m-722 2 c23 6 23 5 3 -42 -11 -28 -19
-35 -32 -30 -9 4 -27 10 -39 12 -27 6 -27 2 -8 47 15 34 17 36 36 22 11 -7 29
-12 40 -9z m86 -24 c20 -7 20 -10 8 -40 -14 -33 -40 -42 -79 -27 -14 5 -14 9
-1 34 8 16 15 42 15 57 l0 28 18 -22 c9 -12 27 -26 39 -30z"/>
<path d="M852 5038 c-28 -28 -2 -91 44 -108 13 -5 44 -41 69 -79 25 -39 50
-73 55 -76 22 -14 7 -25 -33 -25 -55 0 -87 30 -87 81 0 41 -24 79 -50 79 -37
0 -37 -73 0 -85 10 -3 28 -20 39 -38 23 -36 15 -47 -35 -47 -41 0 -68 25 -82
76 -22 78 -87 99 -87 28 0 -22 7 -32 31 -44 17 -8 43 -29 58 -46 l26 -32 -28
-7 c-15 -4 -46 -7 -68 -6 -31 2 -48 -4 -69 -22 -56 -48 -1 -79 59 -33 28 21
135 60 144 52 2 -2 -24 -32 -57 -67 -45 -46 -61 -70 -61 -91 0 -21 5 -28 19
-28 26 0 64 49 58 77 -3 15 9 36 42 72 36 40 54 52 84 56 20 2 37 2 37 -1 0
-11 -24 -49 -47 -73 -26 -29 -38 -63 -29 -86 16 -42 72 14 68 67 -1 17 7 45
18 63 28 45 72 50 117 15 35 -26 41 -40 20 -40 -7 0 -28 -11 -48 -24 -19 -13
-46 -26 -58 -28 -31 -4 -71 -72 -54 -89 10 -10 18 -10 37 -1 25 11 60 65 49
75 -3 3 20 19 52 34 l57 28 28 -31 c88 -100 143 -244 161 -425 11 -110 10
-142 -5 -260 -23 -179 -37 -249 -47 -249 -5 0 -9 6 -9 13 0 8 -22 58 -48 112
l-48 98 49 98 c41 81 51 111 55 168 3 44 1 71 -7 75 -41 26 -110 -101 -120
-222 l-6 -77 -28 61 -27 62 35 53 c61 93 79 244 32 273 -15 9 -23 5 -47 -21
-37 -41 -53 -101 -48 -180 l4 -62 -30 62 c-41 84 -143 187 -184 187 -42 0 -50
-29 -22 -83 30 -57 66 -93 165 -163 72 -50 105 -87 91 -102 -2 -2 -26 10 -52
27 -84 51 -128 64 -198 59 -66 -6 -126 -30 -126 -52 0 -32 136 -58 290 -55
l95 2 28 -53 28 -53 -23 7 c-13 4 -57 12 -99 18 -91 12 -183 -7 -194 -42 -9
-28 -1 -37 43 -42 43 -6 214 14 255 31 27 10 27 10 71 -77 67 -134 69 -147 52
-244 -22 -124 -29 -198 -18 -198 5 0 12 33 16 73 4 39 16 111 27 158 23 97 24
99 116 99 134 0 285 66 232 101 -8 6 -43 8 -79 7 -62 -3 -92 -14 -232 -86 -18
-9 73 221 112 283 l20 33 48 -14 c26 -8 94 -23 152 -33 151 -28 196 -15 144
40 -51 54 -179 74 -277 45 -43 -13 -46 -13 -38 3 5 9 33 38 61 65 36 34 54 45
63 38 7 -6 51 -26 98 -45 169 -67 237 -71 193 -10 -33 46 -120 84 -198 86 -36
1 -66 3 -66 5 0 2 28 16 62 32 50 24 70 28 103 23 22 -3 45 -9 50 -13 6 -4 24
-11 41 -14 20 -5 34 -15 37 -27 4 -16 12 -20 39 -17 27 2 33 7 31 26 -2 13 3
22 11 22 7 0 19 7 26 15 10 12 10 18 -1 32 -9 11 -10 14 -2 9 16 -9 53 11 53
29 0 24 -34 36 -57 20 -11 -8 -40 -17 -63 -21 -34 -6 -42 -4 -38 7 2 8 14 15
26 17 30 5 46 36 27 52 -7 6 -24 10 -37 8 -18 -2 -23 -9 -21 -31 1 -22 -5 -31
-37 -47 -55 -28 -63 -26 -44 13 22 43 54 77 83 88 32 13 91 1 91 -18 0 -10 9
-13 28 -11 40 5 38 42 -3 46 -55 5 -63 12 -32 28 47 25 127 18 127 -11 0 -20
28 -26 45 -9 12 12 13 19 5 29 -6 8 -17 12 -24 9 -7 -3 -28 2 -47 10 l-34 14
30 13 c17 7 48 13 70 14 33 0 40 3 40 20 0 24 -44 34 -59 13 -6 -8 -33 -22
-61 -32 -27 -11 -77 -33 -110 -50 -113 -58 -122 -57 -42 4 30 22 65 40 79 40
30 0 53 23 44 45 -7 19 -56 20 -56 1 0 -7 -18 -25 -40 -40 -22 -14 -40 -23
-40 -19 0 20 68 104 88 109 22 6 42 31 42 53 0 21 -40 11 -49 -11 -5 -13 -19
-32 -31 -43 l-23 -20 7 50 c3 27 11 54 16 59 15 15 12 63 -4 69 -7 3 -19 0
-25 -6 -13 -13 -15 -54 -2 -61 8 -6 6 -29 -6 -66 -8 -24 -32 43 -26 73 6 31
-18 47 -42 27 -20 -17 -19 -26 7 -52 30 -30 50 -111 37 -145 l-10 -27 -15 30
c-9 16 -17 47 -17 69 -2 46 -28 60 -47 25 -12 -23 -4 -64 11 -54 11 7 38 -53
41 -93 1 -15 -6 -43 -16 -61 l-17 -33 -29 58 c-17 32 -30 66 -30 76 0 25 -28
33 -48 14 -13 -14 -14 -21 -4 -43 7 -15 18 -24 26 -21 18 7 56 -62 56 -101 0
-56 -9 -65 -36 -33 -13 16 -24 38 -24 49 0 26 -25 35 -45 16 -23 -24 -15 -49
19 -55 10 -2 28 -16 39 -32 25 -33 16 -45 -54 -71 -26 -9 -75 -37 -110 -61
-35 -24 -65 -43 -66 -41 -2 2 17 45 43 96 53 107 63 150 41 168 -12 10 -20 8
-45 -12 -36 -31 -68 -102 -82 -187 -21 -127 -27 -145 -66 -200 -22 -31 -53
-88 -68 -128 -16 -39 -31 -70 -32 -68 -2 2 1 32 7 68 6 35 10 116 10 179 0 63
4 144 9 180 5 36 14 104 20 151 l12 86 41 13 c121 35 357 181 357 221 0 19
-45 26 -95 14 -82 -19 -145 -55 -217 -123 l-67 -64 16 47 c14 42 24 52 113
111 116 76 161 117 180 163 36 88 -58 91 -159 5 -39 -33 -94 -117 -111 -170
-24 -73 -29 -80 -22 -24 3 30 7 100 7 155 0 112 -17 155 -60 155 -68 0 -64
-234 6 -371 18 -37 18 -39 -1 -116 -12 -43 -23 -112 -27 -153 l-6 -75 -22 70
c-28 90 -73 178 -125 244 l-41 52 33 39 c18 21 41 39 50 39 38 2 64 56 33 68
-18 6 -55 -24 -50 -40 2 -7 -10 -23 -27 -37 l-31 -24 7 29 c4 15 16 40 27 53
23 30 25 65 3 83 -14 11 -19 10 -36 -11 -16 -19 -19 -34 -14 -67 3 -23 0 -57
-7 -77 l-12 -36 -29 24 c-28 21 -30 28 -27 80 2 50 7 61 33 85 23 21 29 32 24
49 -9 26 -38 29 -60 6 -12 -11 -16 -36 -16 -96 0 -80 0 -81 -20 -63 -16 14
-20 31 -20 80 0 53 4 65 25 85 35 33 32 85 -5 85 -37 0 -51 -37 -43 -117 3
-38 4 -68 1 -68 -12 0 -78 100 -78 119 0 30 -27 81 -43 81 -7 0 -18 -5 -25
-12z m44 -52 c5 -21 4 -28 -6 -24 -21 7 -34 33 -26 53 8 23 22 10 32 -29z
m154 16 c0 -11 -9 -27 -20 -37 -19 -17 -20 -17 -20 -1 0 23 18 56 30 56 6 0
10 -8 10 -18z m358 -30 c12 -36 14 -158 3 -202 -7 -29 -9 -19 -12 60 l-3 95
-5 -115 c-6 -113 -6 -114 -20 -75 -19 55 -27 236 -11 264 14 27 33 15 48 -27z
m302 -27 c0 -32 -30 -72 -87 -116 -72 -56 -144 -102 -149 -96 -2 2 15 22 38
44 49 45 90 91 103 113 8 15 -16 -4 -84 -65 l-33 -30 15 30 c19 37 82 99 122
119 39 21 75 21 75 1z m-590 -13 c0 -5 -9 -17 -20 -27 -16 -14 -20 -15 -20 -4
0 16 19 39 32 39 4 0 8 -4 8 -8z m-240 -86 c-1 -21 -1 -21 -20 3 -11 12 -17
27 -14 33 9 14 34 -12 34 -36z m320 10 c0 -7 -7 -21 -15 -32 -14 -18 -15 -18
-11 6 3 14 5 31 5 38 1 17 21 5 21 -12z m-460 -17 c7 -11 9 -23 7 -26 -9 -9
-47 17 -47 32 0 22 28 18 40 -6z m1227 -71 c-3 -7 -5 -2 -5 12 0 14 2 19 5 13
2 -7 2 -19 0 -25z m-197 -6 c0 -10 -47 -53 -80 -74 -76 -46 -242 -129 -253
-125 -7 2 8 14 33 27 45 23 146 85 165 102 17 16 -40 -9 -102 -43 -67 -38 -57
-18 19 38 79 58 218 106 218 75z m130 -2 c0 -5 -4 -10 -10 -10 -5 0 -10 5 -10
10 0 6 5 10 10 10 6 0 10 -4 10 -10z m-1219 -90 c-13 -11 -30 -20 -39 -20 -13
0 -12 3 3 20 10 11 28 20 39 20 20 -1 20 -1 -3 -20z m1179 -11 c0 -5 -4 -9
-10 -9 -5 0 -10 7 -10 16 0 8 5 12 10 9 6 -3 10 -10 10 -16z m-941 -71 c-12
-20 -14 -21 -17 -5 -2 10 2 25 9 34 18 21 23 0 8 -29z m-139 3 c0 -5 -9 -19
-20 -32 -21 -26 -27 -11 -10 22 11 19 30 26 30 10z m230 -1 c0 -11 -42 -52
-48 -46 -2 2 4 16 13 30 17 26 35 34 35 16z m1187 -6 c-3 -3 -12 -4 -19 -1 -8
3 -5 6 6 6 11 1 17 -2 13 -5z m-427 -24 c0 -5 -2 -10 -4 -10 -3 0 -8 5 -11 10
-3 6 -1 10 4 10 6 0 11 -4 11 -10z m400 -70 c0 -5 -4 -10 -10 -10 -5 0 -10 5
-10 10 0 6 5 10 10 10 6 0 10 -4 10 -10z m-545 -50 c3 -5 -18 -62 -47 -126
-29 -64 -54 -111 -56 -106 -1 5 15 49 38 97 22 49 38 90 36 93 -3 2 -21 -27
-41 -64 -29 -57 -34 -63 -29 -34 11 58 63 150 85 150 4 0 11 -4 14 -10z m115
-4 c0 -3 -4 -8 -10 -11 -5 -3 -10 -1 -10 4 0 6 5 11 10 11 6 0 10 -2 10 -4z
m-578 -75 c10 -36 -23 -176 -48 -208 -13 -16 -14 -13 -8 27 4 24 15 74 25 110
9 35 16 66 14 68 -7 7 -27 -41 -45 -111 l-19 -72 0 56 c-1 58 12 107 37 147
19 29 34 24 44 -17z m-246 -23 c25 -23 55 -56 66 -72 14 -21 2 -12 -35 24 -32
30 -57 51 -57 46 0 -5 32 -45 70 -89 39 -44 70 -84 70 -89 0 -9 -71 44 -122
92 -33 31 -78 98 -78 116 0 27 41 13 86 -28z m1144 7 c0 -8 -6 -15 -14 -15
-17 0 -28 14 -19 24 12 12 33 6 33 -9z m-50 -24 c0 -15 -28 -20 -39 -8 -7 10
-4 13 15 15 13 1 24 -2 24 -7z m-48 -31 l33 -29 -45 3 c-41 3 -110 29 -110 42
0 3 3 3 8 1 4 -3 16 -1 27 4 36 14 54 10 87 -21z m-705 -140 c-17 -59 -67
-174 -73 -167 -2 2 6 41 16 87 24 97 19 120 -6 31 -21 -77 -34 -88 -22 -19 10
54 39 120 66 151 16 18 17 18 26 -2 6 -15 4 -40 -7 -81z m723 91 c0 -14 -18
-23 -31 -15 -8 4 -7 9 2 15 18 11 29 11 29 0z m-241 -71 c52 -16 96 -28 98
-27 1 2 -25 16 -60 30 -56 25 -58 26 -22 21 53 -9 112 -39 126 -65 11 -21 10
-22 -30 -15 -40 6 -221 74 -221 82 0 7 14 4 109 -26z m-781 -70 c28 -16 31
-20 12 -16 -51 10 -155 18 -149 12 3 -3 45 -13 94 -21 179 -31 136 -46 -59
-20 -119 16 -142 26 -105 46 63 33 144 33 207 -1z m768 -34 c25 -7 74 -44 74
-57 0 -5 -15 -9 -32 -9 -41 0 -240 38 -250 48 -4 4 24 5 61 2 38 -3 67 -2 64
2 -2 5 -22 8 -43 8 -45 0 -63 17 -23 22 27 3 105 -6 149 -16z m-740 -137 c-70
-16 -54 -21 44 -14 132 10 108 -11 -31 -27 -144 -16 -204 1 -121 35 20 9 62
16 92 15 l55 0 -39 -9z m631 -132 c12 -12 -11 -26 -70 -45 -69 -23 -157 -36
-157 -24 0 4 32 17 72 27 39 11 65 21 57 23 -8 1 -38 -4 -67 -12 -29 -7 -50
-10 -45 -6 9 8 89 37 118 43 25 5 85 1 92 -6z"/>
</g>
</svg>
